<svg class="h-full w-full" width="431" height="103" viewBox="0 0 431 103" fill="none" xmlns="http://www.w3.org/2000/svg">
  <path d="M0.296 79V0.599995H34.12C40.504 0.599995 45.544 1.62666 49.24 3.68C52.936 5.696 55.568 8.328 57.136 11.576C58.704 14.7867 59.488 18.1467 59.488 21.656C59.488 25.1653 58.7227 28.376 57.192 31.288C55.6613 34.1627 53.16 36.384 49.688 37.952C52.5253 38.96 54.8587 40.416 56.688 42.32C58.5547 44.1867 59.9173 46.3147 60.776 48.704C61.672 51.056 62.12 53.4453 62.12 55.872C62.12 58.6347 61.6533 61.3973 60.72 64.16C59.824 66.8853 58.3493 69.368 56.296 71.608C54.2427 73.848 51.5173 75.64 48.12 76.984C44.76 78.328 40.616 79 35.688 79H0.296ZM14.8 65.392H36.64C39.44 65.392 41.624 64.9067 43.192 63.936C44.7973 62.9653 45.9173 61.752 46.552 60.296C47.224 58.8027 47.56 57.328 47.56 55.872C47.56 54.08 47.168 52.3813 46.384 50.776C45.6373 49.1333 44.2373 47.7893 42.184 46.744C40.168 45.6987 37.2373 45.176 33.392 45.176H14.8V65.392ZM14.8 32.128H32.328C36.584 32.128 39.72 31.3067 41.736 29.664C43.7893 27.984 44.816 25.7627 44.816 23C44.816 21.5813 44.5547 20.2 44.032 18.856C43.5093 17.4747 42.5013 16.336 41.008 15.44C39.5147 14.544 37.312 14.096 34.4 14.096H14.8V32.128ZM94.8511 80.344C88.6165 80.344 83.6698 78.664 80.0111 75.304C76.3898 71.9067 74.5791 67.3147 74.5791 61.528C74.5791 57.7947 75.5125 54.528 77.3791 51.728C79.2831 48.8907 81.9151 46.7067 85.2751 45.176C88.6725 43.608 92.6298 42.824 97.1471 42.824C99.6485 42.824 102.056 43.0667 104.371 43.552C106.723 44 108.776 44.6533 110.531 45.512V41.928C110.531 38.7173 109.616 36.3093 107.787 34.704C105.995 33.0613 103.344 32.24 99.8351 32.24C97.0351 32.24 94.1605 32.744 91.2111 33.752C88.2618 34.76 85.2751 36.2533 82.2511 38.232L78.0511 27.2C81.3365 25.0347 84.9951 23.3733 89.0271 22.216C93.0591 21.0213 97.1285 20.424 101.235 20.424C108.926 20.424 114.675 22.2533 118.483 25.912C122.291 29.5333 124.195 34.9467 124.195 42.152V79H110.531V74.408C108.59 76.3493 106.275 77.824 103.587 78.832C100.936 79.84 98.0245 80.344 94.8511 80.344ZM98.0991 68.528C100.414 68.528 102.635 68.08 104.763 67.184C106.928 66.2507 108.851 64.944 110.531 63.264V56.488C108.926 55.704 107.134 55.1067 105.155 54.696C103.214 54.248 101.272 54.024 99.3311 54.024C95.8591 54.024 93.1151 54.696 91.0991 56.04C89.1205 57.3467 88.1311 59.176 88.1311 61.528C88.1311 63.7307 89.0085 65.448 90.7631 66.68C92.5178 67.912 94.9631 68.528 98.0991 68.528ZM158.987 80.344C154.507 80.344 150.214 79.392 146.107 77.488C142.038 75.584 138.808 73.0267 136.419 69.816L145.603 62.088C147.507 64.104 149.71 65.7093 152.211 66.904C154.712 68.0613 157.102 68.64 159.379 68.64C162.216 68.64 164.4 68.1733 165.931 67.24C167.462 66.2693 168.227 64.9253 168.227 63.208C168.227 62.088 167.854 61.0987 167.107 60.24C166.398 59.344 165.128 58.448 163.299 57.552C161.47 56.6187 158.894 55.5547 155.571 54.36C149.15 52.008 144.595 49.4693 141.907 46.744C139.219 43.9813 137.875 40.4907 137.875 36.272C137.875 31.568 139.779 27.76 143.587 24.848C147.395 21.8987 152.36 20.424 158.483 20.424C162.664 20.424 166.51 21.208 170.019 22.776C173.566 24.344 176.608 26.64 179.147 29.664L170.019 37.224C166.659 33.8267 162.739 32.128 158.259 32.128C155.982 32.128 154.152 32.5573 152.771 33.416C151.39 34.2373 150.699 35.3573 150.699 36.776C150.699 38.1573 151.502 39.3893 153.107 40.472C154.75 41.5547 157.792 42.824 162.235 44.28C166.64 45.6613 170.206 47.2293 172.931 48.984C175.694 50.7387 177.71 52.7733 178.979 55.088C180.286 57.4027 180.939 60.072 180.939 63.096C180.939 68.472 178.979 72.6907 175.059 75.752C171.176 78.8133 165.819 80.344 158.987 80.344ZM218 80.344C212.512 80.344 207.77 79.112 203.776 76.648C199.818 74.184 196.757 70.712 194.592 66.232C192.464 61.7147 191.4 56.4133 191.4 50.328C191.4 44.168 192.482 38.848 194.648 34.368C196.85 29.888 199.93 26.4533 203.888 24.064C207.882 21.6373 212.586 20.424 218 20.424C222.629 20.424 226.829 21.3947 230.6 23.336C234.37 25.2773 237.376 28.264 239.616 32.296C241.856 36.2907 242.976 41.3867 242.976 47.584C242.976 48.5547 242.938 49.7493 242.864 51.168C242.826 52.5493 242.733 53.9493 242.584 55.368H205.232C205.381 57.9813 205.978 60.2773 207.024 62.256C208.106 64.1973 209.581 65.7093 211.448 66.792C213.314 67.8747 215.517 68.416 218.056 68.416C220.781 68.416 223.152 67.968 225.168 67.072C227.184 66.1387 229.088 64.664 230.88 62.648L238.944 70.992C236.48 73.792 233.512 76.0507 230.04 77.768C226.568 79.4853 222.554 80.344 218 80.344ZM205.288 44.448H229.424C229.237 41.9467 228.677 39.8 227.744 38.008C226.81 36.1787 225.504 34.7787 223.824 33.808C222.144 32.8373 220.109 32.352 217.72 32.352C214.434 32.352 211.634 33.36 209.32 35.376C207.005 37.392 205.661 40.416 205.288 44.448ZM281.416 80.344C276.152 80.344 271.597 79.1307 267.752 76.704C263.907 74.2773 260.939 70.8427 258.848 66.4C256.757 61.92 255.712 56.6 255.712 50.44C255.712 44.28 256.757 38.96 258.848 34.48C260.976 30 263.981 26.5467 267.864 24.12C271.747 21.656 276.32 20.424 281.584 20.424C287.52 20.424 292.448 21.8053 296.368 24.568C300.325 27.2933 303.181 31.344 304.936 36.72L291.664 41.2C290.768 38.8107 289.461 36.9813 287.744 35.712C286.027 34.4053 284.048 33.752 281.808 33.752C278.187 33.752 275.293 35.2453 273.128 38.232C271 41.2187 269.936 45.288 269.936 50.44C269.936 55.5173 270.981 59.5493 273.072 62.536C275.163 65.5227 277.981 67.016 281.528 67.016C284.029 67.016 286.157 66.3067 287.912 64.888C289.704 63.4693 291.029 61.3973 291.888 58.672L305.104 62.648C303.424 68.5093 300.568 72.9333 296.536 75.92C292.541 78.8693 287.501 80.344 281.416 80.344ZM342.183 80.344C334.119 80.344 327.754 77.6747 323.087 72.336C318.42 66.9973 316.087 59.6987 316.087 50.44C316.087 44.3173 317.151 39.016 319.279 34.536C321.407 30.0187 324.412 26.5467 328.295 24.12C332.215 21.656 336.844 20.424 342.183 20.424C347.484 20.424 352.076 21.6373 355.959 24.064C359.842 26.4907 362.828 29.944 364.919 34.424C367.01 38.904 368.055 44.224 368.055 50.384C368.055 56.5813 367.01 61.92 364.919 66.4C362.866 70.88 359.898 74.3333 356.015 76.76C352.132 79.1493 347.522 80.344 342.183 80.344ZM342.183 66.96C345.954 66.96 348.884 65.504 350.975 62.592C353.066 59.68 354.111 55.6107 354.111 50.384C354.111 45.1573 353.047 41.088 350.919 38.176C348.828 35.2267 345.916 33.752 342.183 33.752C338.412 33.752 335.463 35.2267 333.335 38.176C331.207 41.1253 330.143 45.2133 330.143 50.44C330.143 55.592 331.207 59.6427 333.335 62.592C335.463 65.504 338.412 66.96 342.183 66.96ZM403.421 102.856L395.693 91.152C401.143 90.7413 405.362 90.1253 408.349 89.304C411.373 88.4827 413.482 87.3067 414.677 85.776C415.871 84.2453 416.469 82.248 416.469 79.784V75.64C413.557 78.776 409.45 80.344 404.149 80.344C399.183 80.344 394.909 79.1493 391.325 76.76C387.741 74.3333 384.978 70.88 383.037 66.4C381.133 61.8827 380.181 56.5253 380.181 50.328C380.181 44.28 381.17 39.016 383.149 34.536C385.165 30.056 387.965 26.584 391.549 24.12C395.17 21.656 399.407 20.424 404.261 20.424C406.799 20.424 409.114 20.816 411.205 21.6C413.333 22.384 415.087 23.5227 416.469 25.016V21.768H430.413V73.848C430.413 78.9253 429.946 83.2187 429.013 86.728C428.079 90.2373 426.549 93.112 424.421 95.352C422.33 97.592 419.567 99.2907 416.133 100.448C412.698 101.643 408.461 102.445 403.421 102.856ZM406.445 66.96C408.423 66.96 410.271 66.512 411.989 65.616C413.743 64.6827 415.237 63.432 416.469 61.864V38.792C415.423 37.336 413.986 36.1413 412.157 35.208C410.327 34.2373 408.479 33.752 406.613 33.752C402.581 33.752 399.501 35.1707 397.373 38.008C395.282 40.808 394.237 44.9147 394.237 50.328C394.237 53.8373 394.703 56.8427 395.637 59.344C396.607 61.808 398.007 63.6933 399.837 65C401.666 66.3067 403.869 66.96 406.445 66.96Z" fill="black"/>
</svg>
